<svg width="1920" height="60" viewBox="0 0 1920 60" fill="none" xmlns="http://www.w3.org/2000/svg">
<g clip-path="url(#clip0_11_155)">
<path d="M1920 0H0V60H1920V0Z" fill="#3E3E42"/>
<path d="M31 14H-6.05L-15 0H21.21L31 14Z" fill="black"/>
<path d="M113.76 14H76.71L67.76 0H103.97L113.76 14Z" fill="black"/>
<path d="M196.52 14H159.47L150.52 0H186.73L196.52 14Z" fill="black"/>
<path d="M279.29 14H242.23L233.29 0H269.49L279.29 14Z" fill="black"/>
<path d="M362.05 14H324.99L316.05 0H352.25L362.05 14Z" fill="black"/>
<path d="M444.81 14H407.75L398.81 0H435.02L444.81 14Z" fill="black"/>
<path d="M527.57 14H490.51L481.57 0H517.78L527.57 14Z" fill="black"/>
<path d="M610.33 14H573.27L564.33 0H600.54L610.33 14Z" fill="black"/>
<path d="M693.09 14H656.03L647.09 0H683.3L693.09 14Z" fill="black"/>
<path d="M775.85 14H738.79L729.85 0H766.06L775.85 14Z" fill="black"/>
<path d="M858.61 14H821.56L812.61 0H848.82L858.61 14Z" fill="black"/>
<path d="M941.37 14H904.32L895.37 0H931.58L941.37 14Z" fill="black"/>
<path d="M1024.13 14H987.08L978.13 0H1014.34L1024.13 14Z" fill="black"/>
<path d="M1106.89 14H1069.84L1060.89 0H1097.1L1106.89 14Z" fill="black"/>
<path d="M1189.66 14H1152.6L1143.66 0H1179.86L1189.66 14Z" fill="black"/>
<path d="M1272.42 14H1235.36L1226.42 0H1262.62L1272.42 14Z" fill="black"/>
<path d="M1355.18 14H1318.12L1309.18 0H1345.38L1355.18 14Z" fill="black"/>
<path d="M1438.09 14H1401.03L1392.09 0H1428.29L1438.09 14Z" fill="black"/>
<path d="M1521 14H1483.94L1475 0H1511.2L1521 14Z" fill="black"/>
<path d="M1603.91 14H1566.85L1557.91 0H1594.11L1603.91 14Z" fill="black"/>
<path d="M1686.82 14H1649.76L1640.82 0H1677.02L1686.82 14Z" fill="black"/>
<path d="M1769.73 14H1732.67L1723.73 0H1759.93L1769.73 14Z" fill="black"/>
<path d="M1852.64 14H1815.58L1806.64 0H1842.84L1852.64 14Z" fill="black"/>
<path d="M1935.55 14H1898.49L1889.55 0H1925.75L1935.55 14Z" fill="black"/>
<path d="M-95.2266 42.1836H-91.8164C-91.6523 43.5781 -90.1992 44.4922 -88.3242 44.4922C-86.4375 44.4922 -85.1484 43.5898 -85.1484 42.3477C-85.1484 41.2461 -85.957 40.6367 -87.9961 40.1797L-90.1992 39.6992C-93.3164 39.0312 -94.8516 37.4492 -94.8516 34.9766C-94.8516 31.8594 -92.1562 29.7969 -88.3828 29.7969C-84.4453 29.7969 -81.9727 31.8242 -81.9141 34.8828H-85.2305C-85.3477 33.4531 -86.6016 32.5859 -88.3711 32.5859C-90.1172 32.5859 -91.2891 33.418 -91.2891 34.6719C-91.2891 35.7148 -90.4688 36.3008 -88.5234 36.7461L-86.4727 37.1797C-83.0859 37.9062 -81.6094 39.3594 -81.6094 41.9375C-81.6094 45.2188 -84.2695 47.293 -88.4648 47.293C-92.5312 47.293 -95.1211 45.3594 -95.2266 42.1836ZM-75.8906 47H-79.4297V30.0898H-75.8906V47ZM-65.4961 47H-69.0352V33.0078H-73.9219V30.0898H-60.5977V33.0078H-65.4961V47ZM-47.4375 44.0703V47H-58.6406V30.0898H-47.4375V33.0078H-55.1016V37.0859H-47.8711V39.8047H-55.1016V44.0703H-47.4375ZM-36.5859 30.0898V40.6719C-36.5859 42.8398 -35.3086 44.2578 -33.0352 44.2578C-30.7734 44.2578 -29.4961 42.8398 -29.4961 40.6719V30.0898H-25.957V41.0234C-25.957 44.75 -28.7109 47.293 -33.0352 47.293C-37.3711 47.293 -40.125 44.75 -40.125 41.0234V30.0898H-36.5859ZM-19.7461 47H-23.1328V30.0898H-20.1797L-12.2812 41.1055H-12.1875V30.0898H-8.80078V47H-11.7305L-19.6406 35.9258H-19.7461V47ZM-5.97656 30.0898H0.480469C5.55469 30.0898 8.54297 33.1133 8.54297 38.4805C8.54297 43.8477 5.55469 47 0.480469 47H-5.97656V30.0898ZM-2.4375 33.0078V44.0703H0.0585938C3.22266 44.0703 4.93359 42.1484 4.93359 38.4922C4.93359 34.9531 3.17578 33.0078 0.0585938 33.0078H-2.4375ZM22.0312 44.0703V47H10.8281V30.0898H22.0312V33.0078H14.3672V37.0859H21.5977V39.8047H14.3672V44.0703H22.0312ZM28.125 32.8555V38.2461H31.1719C32.9531 38.2461 33.9961 37.2266 33.9961 35.5508C33.9961 33.9102 32.8945 32.8555 31.1367 32.8555H28.125ZM28.125 40.8125V47H24.5859V30.0898H31.5117C35.4023 30.0898 37.6289 32.1406 37.6289 35.4805C37.6289 37.6484 36.5039 39.5234 34.5586 40.2852L38.1211 47H34.1133L30.9609 40.8125H28.125ZM52.1953 47.293C47.2734 47.293 44.1914 44 44.1914 38.5391C44.1914 33.0898 47.2969 29.7969 52.1953 29.7969C56.2617 29.7969 59.3555 32.375 59.625 36.1602H56.1797C55.8516 34.0859 54.2578 32.7266 52.1953 32.7266C49.5234 32.7266 47.8008 34.9648 47.8008 38.5273C47.8008 42.1367 49.5 44.3633 52.207 44.3633C54.3047 44.3633 55.8164 43.1328 56.1914 41.1289H59.6367C59.2383 44.9023 56.3438 47.293 52.1953 47.293ZM69.457 29.7969C74.4609 29.7969 77.6133 33.1602 77.6133 38.5508C77.6133 43.9297 74.4609 47.293 69.457 47.293C64.4414 47.293 61.3008 43.9297 61.3008 38.5508C61.3008 33.1602 64.4414 29.7969 69.457 29.7969ZM69.457 32.75C66.6914 32.75 64.9102 35 64.9102 38.5508C64.9102 42.0898 66.6797 44.3281 69.457 44.3281C72.2227 44.3281 73.9922 42.0898 73.9922 38.5508C73.9922 35 72.2227 32.75 69.457 32.75ZM83.2852 47H79.8984V30.0898H82.8516L90.75 41.1055H90.8438V30.0898H94.2305V47H91.3008L83.3906 35.9258H83.2852V47ZM96.4219 42.1836H99.832C99.9961 43.5781 101.449 44.4922 103.324 44.4922C105.211 44.4922 106.5 43.5898 106.5 42.3477C106.5 41.2461 105.691 40.6367 103.652 40.1797L101.449 39.6992C98.332 39.0312 96.7969 37.4492 96.7969 34.9766C96.7969 31.8594 99.4922 29.7969 103.266 29.7969C107.203 29.7969 109.676 31.8242 109.734 34.8828H106.418C106.301 33.4531 105.047 32.5859 103.277 32.5859C101.531 32.5859 100.359 33.418 100.359 34.6719C100.359 35.7148 101.18 36.3008 103.125 36.7461L105.176 37.1797C108.562 37.9062 110.039 39.3594 110.039 41.9375C110.039 45.2188 107.379 47.293 103.184 47.293C99.1172 47.293 96.5273 45.3594 96.4219 42.1836ZM119.801 47H116.262V33.0078H111.375V30.0898H124.699V33.0078H119.801V47ZM130.195 32.8555V38.2461H133.242C135.023 38.2461 136.066 37.2266 136.066 35.5508C136.066 33.9102 134.965 32.8555 133.207 32.8555H130.195ZM130.195 40.8125V47H126.656V30.0898H133.582C137.473 30.0898 139.699 32.1406 139.699 35.4805C139.699 37.6484 138.574 39.5234 136.629 40.2852L140.191 47H136.184L133.031 40.8125H130.195ZM145.57 30.0898V40.6719C145.57 42.8398 146.848 44.2578 149.121 44.2578C151.383 44.2578 152.66 42.8398 152.66 40.6719V30.0898H156.199V41.0234C156.199 44.75 153.445 47.293 149.121 47.293C144.785 47.293 142.031 44.75 142.031 41.0234V30.0898H145.57ZM166.5 47.293C161.578 47.293 158.496 44 158.496 38.5391C158.496 33.0898 161.602 29.7969 166.5 29.7969C170.566 29.7969 173.66 32.375 173.93 36.1602H170.484C170.156 34.0859 168.562 32.7266 166.5 32.7266C163.828 32.7266 162.105 34.9648 162.105 38.5273C162.105 42.1367 163.805 44.3633 166.512 44.3633C168.609 44.3633 170.121 43.1328 170.496 41.1289H173.941C173.543 44.9023 170.648 47.293 166.5 47.293ZM183.176 47H179.637V33.0078H174.75V30.0898H188.074V33.0078H183.176V47ZM193.57 47H190.031V30.0898H193.57V47ZM204.012 29.7969C209.016 29.7969 212.168 33.1602 212.168 38.5508C212.168 43.9297 209.016 47.293 204.012 47.293C198.996 47.293 195.855 43.9297 195.855 38.5508C195.855 33.1602 198.996 29.7969 204.012 29.7969ZM204.012 32.75C201.246 32.75 199.465 35 199.465 38.5508C199.465 42.0898 201.234 44.3281 204.012 44.3281C206.777 44.3281 208.547 42.0898 208.547 38.5508C208.547 35 206.777 32.75 204.012 32.75ZM217.84 47H214.453V30.0898H217.406L225.305 41.1055H225.398V30.0898H228.785V47H225.855L217.945 35.9258H217.84V47Z" fill="black"/>
<path d="M261.773 42.1836H265.184C265.348 43.5781 266.801 44.4922 268.676 44.4922C270.562 44.4922 271.852 43.5898 271.852 42.3477C271.852 41.2461 271.043 40.6367 269.004 40.1797L266.801 39.6992C263.684 39.0312 262.148 37.4492 262.148 34.9766C262.148 31.8594 264.844 29.7969 268.617 29.7969C272.555 29.7969 275.027 31.8242 275.086 34.8828H271.77C271.652 33.4531 270.398 32.5859 268.629 32.5859C266.883 32.5859 265.711 33.418 265.711 34.6719C265.711 35.7148 266.531 36.3008 268.477 36.7461L270.527 37.1797C273.914 37.9062 275.391 39.3594 275.391 41.9375C275.391 45.2188 272.73 47.293 268.535 47.293C264.469 47.293 261.879 45.3594 261.773 42.1836ZM281.109 47H277.57V30.0898H281.109V47ZM291.504 47H287.965V33.0078H283.078V30.0898H296.402V33.0078H291.504V47ZM309.562 44.0703V47H298.359V30.0898H309.562V33.0078H301.898V37.0859H309.129V39.8047H301.898V44.0703H309.562ZM320.414 30.0898V40.6719C320.414 42.8398 321.691 44.2578 323.965 44.2578C326.227 44.2578 327.504 42.8398 327.504 40.6719V30.0898H331.043V41.0234C331.043 44.75 328.289 47.293 323.965 47.293C319.629 47.293 316.875 44.75 316.875 41.0234V30.0898H320.414ZM337.254 47H333.867V30.0898H336.82L344.719 41.1055H344.812V30.0898H348.199V47H345.27L337.359 35.9258H337.254V47ZM351.023 30.0898H357.48C362.555 30.0898 365.543 33.1133 365.543 38.4805C365.543 43.8477 362.555 47 357.48 47H351.023V30.0898ZM354.562 33.0078V44.0703H357.059C360.223 44.0703 361.934 42.1484 361.934 38.4922C361.934 34.9531 360.176 33.0078 357.059 33.0078H354.562ZM379.031 44.0703V47H367.828V30.0898H379.031V33.0078H371.367V37.0859H378.598V39.8047H371.367V44.0703H379.031ZM385.125 32.8555V38.2461H388.172C389.953 38.2461 390.996 37.2266 390.996 35.5508C390.996 33.9102 389.895 32.8555 388.137 32.8555H385.125ZM385.125 40.8125V47H381.586V30.0898H388.512C392.402 30.0898 394.629 32.1406 394.629 35.4805C394.629 37.6484 393.504 39.5234 391.559 40.2852L395.121 47H391.113L387.961 40.8125H385.125ZM409.195 47.293C404.273 47.293 401.191 44 401.191 38.5391C401.191 33.0898 404.297 29.7969 409.195 29.7969C413.262 29.7969 416.355 32.375 416.625 36.1602H413.18C412.852 34.0859 411.258 32.7266 409.195 32.7266C406.523 32.7266 404.801 34.9648 404.801 38.5273C404.801 42.1367 406.5 44.3633 409.207 44.3633C411.305 44.3633 412.816 43.1328 413.191 41.1289H416.637C416.238 44.9023 413.344 47.293 409.195 47.293ZM426.457 29.7969C431.461 29.7969 434.613 33.1602 434.613 38.5508C434.613 43.9297 431.461 47.293 426.457 47.293C421.441 47.293 418.301 43.9297 418.301 38.5508C418.301 33.1602 421.441 29.7969 426.457 29.7969ZM426.457 32.75C423.691 32.75 421.91 35 421.91 38.5508C421.91 42.0898 423.68 44.3281 426.457 44.3281C429.223 44.3281 430.992 42.0898 430.992 38.5508C430.992 35 429.223 32.75 426.457 32.75ZM440.285 47H436.898V30.0898H439.852L447.75 41.1055H447.844V30.0898H451.23V47H448.301L440.391 35.9258H440.285V47ZM453.422 42.1836H456.832C456.996 43.5781 458.449 44.4922 460.324 44.4922C462.211 44.4922 463.5 43.5898 463.5 42.3477C463.5 41.2461 462.691 40.6367 460.652 40.1797L458.449 39.6992C455.332 39.0312 453.797 37.4492 453.797 34.9766C453.797 31.8594 456.492 29.7969 460.266 29.7969C464.203 29.7969 466.676 31.8242 466.734 34.8828H463.418C463.301 33.4531 462.047 32.5859 460.277 32.5859C458.531 32.5859 457.359 33.418 457.359 34.6719C457.359 35.7148 458.18 36.3008 460.125 36.7461L462.176 37.1797C465.562 37.9062 467.039 39.3594 467.039 41.9375C467.039 45.2188 464.379 47.293 460.184 47.293C456.117 47.293 453.527 45.3594 453.422 42.1836ZM476.801 47H473.262V33.0078H468.375V30.0898H481.699V33.0078H476.801V47ZM487.195 32.8555V38.2461H490.242C492.023 38.2461 493.066 37.2266 493.066 35.5508C493.066 33.9102 491.965 32.8555 490.207 32.8555H487.195ZM487.195 40.8125V47H483.656V30.0898H490.582C494.473 30.0898 496.699 32.1406 496.699 35.4805C496.699 37.6484 495.574 39.5234 493.629 40.2852L497.191 47H493.184L490.031 40.8125H487.195ZM502.57 30.0898V40.6719C502.57 42.8398 503.848 44.2578 506.121 44.2578C508.383 44.2578 509.66 42.8398 509.66 40.6719V30.0898H513.199V41.0234C513.199 44.75 510.445 47.293 506.121 47.293C501.785 47.293 499.031 44.75 499.031 41.0234V30.0898H502.57ZM523.5 47.293C518.578 47.293 515.496 44 515.496 38.5391C515.496 33.0898 518.602 29.7969 523.5 29.7969C527.566 29.7969 530.66 32.375 530.93 36.1602H527.484C527.156 34.0859 525.562 32.7266 523.5 32.7266C520.828 32.7266 519.105 34.9648 519.105 38.5273C519.105 42.1367 520.805 44.3633 523.512 44.3633C525.609 44.3633 527.121 43.1328 527.496 41.1289H530.941C530.543 44.9023 527.648 47.293 523.5 47.293ZM540.176 47H536.637V33.0078H531.75V30.0898H545.074V33.0078H540.176V47ZM550.57 47H547.031V30.0898H550.57V47ZM561.012 29.7969C566.016 29.7969 569.168 33.1602 569.168 38.5508C569.168 43.9297 566.016 47.293 561.012 47.293C555.996 47.293 552.855 43.9297 552.855 38.5508C552.855 33.1602 555.996 29.7969 561.012 29.7969ZM561.012 32.75C558.246 32.75 556.465 35 556.465 38.5508C556.465 42.0898 558.234 44.3281 561.012 44.3281C563.777 44.3281 565.547 42.0898 565.547 38.5508C565.547 35 563.777 32.75 561.012 32.75ZM574.84 47H571.453V30.0898H574.406L582.305 41.1055H582.398V30.0898H585.785V47H582.855L574.945 35.9258H574.84V47Z" fill="black"/>
<path d="M618.773 42.1836H622.184C622.348 43.5781 623.801 44.4922 625.676 44.4922C627.562 44.4922 628.852 43.5898 628.852 42.3477C628.852 41.2461 628.043 40.6367 626.004 40.1797L623.801 39.6992C620.684 39.0312 619.148 37.4492 619.148 34.9766C619.148 31.8594 621.844 29.7969 625.617 29.7969C629.555 29.7969 632.027 31.8242 632.086 34.8828H628.77C628.652 33.4531 627.398 32.5859 625.629 32.5859C623.883 32.5859 622.711 33.418 622.711 34.6719C622.711 35.7148 623.531 36.3008 625.477 36.7461L627.527 37.1797C630.914 37.9062 632.391 39.3594 632.391 41.9375C632.391 45.2188 629.73 47.293 625.535 47.293C621.469 47.293 618.879 45.3594 618.773 42.1836ZM638.109 47H634.57V30.0898H638.109V47ZM648.504 47H644.965V33.0078H640.078V30.0898H653.402V33.0078H648.504V47ZM666.562 44.0703V47H655.359V30.0898H666.562V33.0078H658.898V37.0859H666.129V39.8047H658.898V44.0703H666.562ZM677.414 30.0898V40.6719C677.414 42.8398 678.691 44.2578 680.965 44.2578C683.227 44.2578 684.504 42.8398 684.504 40.6719V30.0898H688.043V41.0234C688.043 44.75 685.289 47.293 680.965 47.293C676.629 47.293 673.875 44.75 673.875 41.0234V30.0898H677.414ZM694.254 47H690.867V30.0898H693.82L701.719 41.1055H701.812V30.0898H705.199V47H702.27L694.359 35.9258H694.254V47ZM708.023 30.0898H714.48C719.555 30.0898 722.543 33.1133 722.543 38.4805C722.543 43.8477 719.555 47 714.48 47H708.023V30.0898ZM711.562 33.0078V44.0703H714.059C717.223 44.0703 718.934 42.1484 718.934 38.4922C718.934 34.9531 717.176 33.0078 714.059 33.0078H711.562ZM736.031 44.0703V47H724.828V30.0898H736.031V33.0078H728.367V37.0859H735.598V39.8047H728.367V44.0703H736.031ZM742.125 32.8555V38.2461H745.172C746.953 38.2461 747.996 37.2266 747.996 35.5508C747.996 33.9102 746.895 32.8555 745.137 32.8555H742.125ZM742.125 40.8125V47H738.586V30.0898H745.512C749.402 30.0898 751.629 32.1406 751.629 35.4805C751.629 37.6484 750.504 39.5234 748.559 40.2852L752.121 47H748.113L744.961 40.8125H742.125ZM766.195 47.293C761.273 47.293 758.191 44 758.191 38.5391C758.191 33.0898 761.297 29.7969 766.195 29.7969C770.262 29.7969 773.355 32.375 773.625 36.1602H770.18C769.852 34.0859 768.258 32.7266 766.195 32.7266C763.523 32.7266 761.801 34.9648 761.801 38.5273C761.801 42.1367 763.5 44.3633 766.207 44.3633C768.305 44.3633 769.816 43.1328 770.191 41.1289H773.637C773.238 44.9023 770.344 47.293 766.195 47.293ZM783.457 29.7969C788.461 29.7969 791.613 33.1602 791.613 38.5508C791.613 43.9297 788.461 47.293 783.457 47.293C778.441 47.293 775.301 43.9297 775.301 38.5508C775.301 33.1602 778.441 29.7969 783.457 29.7969ZM783.457 32.75C780.691 32.75 778.91 35 778.91 38.5508C778.91 42.0898 780.68 44.3281 783.457 44.3281C786.223 44.3281 787.992 42.0898 787.992 38.5508C787.992 35 786.223 32.75 783.457 32.75ZM797.285 47H793.898V30.0898H796.852L804.75 41.1055H804.844V30.0898H808.23V47H805.301L797.391 35.9258H797.285V47ZM810.422 42.1836H813.832C813.996 43.5781 815.449 44.4922 817.324 44.4922C819.211 44.4922 820.5 43.5898 820.5 42.3477C820.5 41.2461 819.691 40.6367 817.652 40.1797L815.449 39.6992C812.332 39.0312 810.797 37.4492 810.797 34.9766C810.797 31.8594 813.492 29.7969 817.266 29.7969C821.203 29.7969 823.676 31.8242 823.734 34.8828H820.418C820.301 33.4531 819.047 32.5859 817.277 32.5859C815.531 32.5859 814.359 33.418 814.359 34.6719C814.359 35.7148 815.18 36.3008 817.125 36.7461L819.176 37.1797C822.562 37.9062 824.039 39.3594 824.039 41.9375C824.039 45.2188 821.379 47.293 817.184 47.293C813.117 47.293 810.527 45.3594 810.422 42.1836ZM833.801 47H830.262V33.0078H825.375V30.0898H838.699V33.0078H833.801V47ZM844.195 32.8555V38.2461H847.242C849.023 38.2461 850.066 37.2266 850.066 35.5508C850.066 33.9102 848.965 32.8555 847.207 32.8555H844.195ZM844.195 40.8125V47H840.656V30.0898H847.582C851.473 30.0898 853.699 32.1406 853.699 35.4805C853.699 37.6484 852.574 39.5234 850.629 40.2852L854.191 47H850.184L847.031 40.8125H844.195ZM859.57 30.0898V40.6719C859.57 42.8398 860.848 44.2578 863.121 44.2578C865.383 44.2578 866.66 42.8398 866.66 40.6719V30.0898H870.199V41.0234C870.199 44.75 867.445 47.293 863.121 47.293C858.785 47.293 856.031 44.75 856.031 41.0234V30.0898H859.57ZM880.5 47.293C875.578 47.293 872.496 44 872.496 38.5391C872.496 33.0898 875.602 29.7969 880.5 29.7969C884.566 29.7969 887.66 32.375 887.93 36.1602H884.484C884.156 34.0859 882.562 32.7266 880.5 32.7266C877.828 32.7266 876.105 34.9648 876.105 38.5273C876.105 42.1367 877.805 44.3633 880.512 44.3633C882.609 44.3633 884.121 43.1328 884.496 41.1289H887.941C887.543 44.9023 884.648 47.293 880.5 47.293ZM897.176 47H893.637V33.0078H888.75V30.0898H902.074V33.0078H897.176V47ZM907.57 47H904.031V30.0898H907.57V47ZM918.012 29.7969C923.016 29.7969 926.168 33.1602 926.168 38.5508C926.168 43.9297 923.016 47.293 918.012 47.293C912.996 47.293 909.855 43.9297 909.855 38.5508C909.855 33.1602 912.996 29.7969 918.012 29.7969ZM918.012 32.75C915.246 32.75 913.465 35 913.465 38.5508C913.465 42.0898 915.234 44.3281 918.012 44.3281C920.777 44.3281 922.547 42.0898 922.547 38.5508C922.547 35 920.777 32.75 918.012 32.75ZM931.84 47H928.453V30.0898H931.406L939.305 41.1055H939.398V30.0898H942.785V47H939.855L931.945 35.9258H931.84V47Z" fill="black"/>
<path d="M975.773 42.1836H979.184C979.348 43.5781 980.801 44.4922 982.676 44.4922C984.562 44.4922 985.852 43.5898 985.852 42.3477C985.852 41.2461 985.043 40.6367 983.004 40.1797L980.801 39.6992C977.684 39.0312 976.148 37.4492 976.148 34.9766C976.148 31.8594 978.844 29.7969 982.617 29.7969C986.555 29.7969 989.027 31.8242 989.086 34.8828H985.77C985.652 33.4531 984.398 32.5859 982.629 32.5859C980.883 32.5859 979.711 33.418 979.711 34.6719C979.711 35.7148 980.531 36.3008 982.477 36.7461L984.527 37.1797C987.914 37.9062 989.391 39.3594 989.391 41.9375C989.391 45.2188 986.73 47.293 982.535 47.293C978.469 47.293 975.879 45.3594 975.773 42.1836ZM995.109 47H991.57V30.0898H995.109V47ZM1005.5 47H1001.96V33.0078H997.078V30.0898H1010.4V33.0078H1005.5V47ZM1023.56 44.0703V47H1012.36V30.0898H1023.56V33.0078H1015.9V37.0859H1023.13V39.8047H1015.9V44.0703H1023.56ZM1034.41 30.0898V40.6719C1034.41 42.8398 1035.69 44.2578 1037.96 44.2578C1040.23 44.2578 1041.5 42.8398 1041.5 40.6719V30.0898H1045.04V41.0234C1045.04 44.75 1042.29 47.293 1037.96 47.293C1033.63 47.293 1030.88 44.75 1030.88 41.0234V30.0898H1034.41ZM1051.25 47H1047.87V30.0898H1050.82L1058.72 41.1055H1058.81V30.0898H1062.2V47H1059.27L1051.36 35.9258H1051.25V47ZM1065.02 30.0898H1071.48C1076.55 30.0898 1079.54 33.1133 1079.54 38.4805C1079.54 43.8477 1076.55 47 1071.48 47H1065.02V30.0898ZM1068.56 33.0078V44.0703H1071.06C1074.22 44.0703 1075.93 42.1484 1075.93 38.4922C1075.93 34.9531 1074.18 33.0078 1071.06 33.0078H1068.56ZM1093.03 44.0703V47H1081.83V30.0898H1093.03V33.0078H1085.37V37.0859H1092.6V39.8047H1085.37V44.0703H1093.03ZM1099.12 32.8555V38.2461H1102.17C1103.95 38.2461 1105 37.2266 1105 35.5508C1105 33.9102 1103.89 32.8555 1102.14 32.8555H1099.12ZM1099.12 40.8125V47H1095.59V30.0898H1102.51C1106.4 30.0898 1108.63 32.1406 1108.63 35.4805C1108.63 37.6484 1107.5 39.5234 1105.56 40.2852L1109.12 47H1105.11L1101.96 40.8125H1099.12ZM1123.2 47.293C1118.27 47.293 1115.19 44 1115.19 38.5391C1115.19 33.0898 1118.3 29.7969 1123.2 29.7969C1127.26 29.7969 1130.36 32.375 1130.62 36.1602H1127.18C1126.85 34.0859 1125.26 32.7266 1123.2 32.7266C1120.52 32.7266 1118.8 34.9648 1118.8 38.5273C1118.8 42.1367 1120.5 44.3633 1123.21 44.3633C1125.3 44.3633 1126.82 43.1328 1127.19 41.1289H1130.64C1130.24 44.9023 1127.34 47.293 1123.2 47.293ZM1140.46 29.7969C1145.46 29.7969 1148.61 33.1602 1148.61 38.5508C1148.61 43.9297 1145.46 47.293 1140.46 47.293C1135.44 47.293 1132.3 43.9297 1132.3 38.5508C1132.3 33.1602 1135.44 29.7969 1140.46 29.7969ZM1140.46 32.75C1137.69 32.75 1135.91 35 1135.91 38.5508C1135.91 42.0898 1137.68 44.3281 1140.46 44.3281C1143.22 44.3281 1144.99 42.0898 1144.99 38.5508C1144.99 35 1143.22 32.75 1140.46 32.75ZM1154.29 47H1150.9V30.0898H1153.85L1161.75 41.1055H1161.84V30.0898H1165.23V47H1162.3L1154.39 35.9258H1154.29V47ZM1167.42 42.1836H1170.83C1171 43.5781 1172.45 44.4922 1174.32 44.4922C1176.21 44.4922 1177.5 43.5898 1177.5 42.3477C1177.5 41.2461 1176.69 40.6367 1174.65 40.1797L1172.45 39.6992C1169.33 39.0312 1167.8 37.4492 1167.8 34.9766C1167.8 31.8594 1170.49 29.7969 1174.27 29.7969C1178.2 29.7969 1180.68 31.8242 1180.73 34.8828H1177.42C1177.3 33.4531 1176.05 32.5859 1174.28 32.5859C1172.53 32.5859 1171.36 33.418 1171.36 34.6719C1171.36 35.7148 1172.18 36.3008 1174.12 36.7461L1176.18 37.1797C1179.56 37.9062 1181.04 39.3594 1181.04 41.9375C1181.04 45.2188 1178.38 47.293 1174.18 47.293C1170.12 47.293 1167.53 45.3594 1167.42 42.1836ZM1190.8 47H1187.26V33.0078H1182.38V30.0898H1195.7V33.0078H1190.8V47ZM1201.2 32.8555V38.2461H1204.24C1206.02 38.2461 1207.07 37.2266 1207.07 35.5508C1207.07 33.9102 1205.96 32.8555 1204.21 32.8555H1201.2ZM1201.2 40.8125V47H1197.66V30.0898H1204.58C1208.47 30.0898 1210.7 32.1406 1210.7 35.4805C1210.7 37.6484 1209.57 39.5234 1207.63 40.2852L1211.19 47H1207.18L1204.03 40.8125H1201.2ZM1216.57 30.0898V40.6719C1216.57 42.8398 1217.85 44.2578 1220.12 44.2578C1222.38 44.2578 1223.66 42.8398 1223.66 40.6719V30.0898H1227.2V41.0234C1227.2 44.75 1224.45 47.293 1220.12 47.293C1215.79 47.293 1213.03 44.75 1213.03 41.0234V30.0898H1216.57ZM1237.5 47.293C1232.58 47.293 1229.5 44 1229.5 38.5391C1229.5 33.0898 1232.6 29.7969 1237.5 29.7969C1241.57 29.7969 1244.66 32.375 1244.93 36.1602H1241.48C1241.16 34.0859 1239.56 32.7266 1237.5 32.7266C1234.83 32.7266 1233.11 34.9648 1233.11 38.5273C1233.11 42.1367 1234.8 44.3633 1237.51 44.3633C1239.61 44.3633 1241.12 43.1328 1241.5 41.1289H1244.94C1244.54 44.9023 1241.65 47.293 1237.5 47.293ZM1254.18 47H1250.64V33.0078H1245.75V30.0898H1259.07V33.0078H1254.18V47ZM1264.57 47H1261.03V30.0898H1264.57V47ZM1275.01 29.7969C1280.02 29.7969 1283.17 33.1602 1283.17 38.5508C1283.17 43.9297 1280.02 47.293 1275.01 47.293C1270 47.293 1266.86 43.9297 1266.86 38.5508C1266.86 33.1602 1270 29.7969 1275.01 29.7969ZM1275.01 32.75C1272.25 32.75 1270.46 35 1270.46 38.5508C1270.46 42.0898 1272.23 44.3281 1275.01 44.3281C1277.78 44.3281 1279.55 42.0898 1279.55 38.5508C1279.55 35 1277.78 32.75 1275.01 32.75ZM1288.84 47H1285.45V30.0898H1288.41L1296.3 41.1055H1296.4V30.0898H1299.79V47H1296.86L1288.95 35.9258H1288.84V47Z" fill="black"/>
<path d="M1332.77 42.1836H1336.18C1336.35 43.5781 1337.8 44.4922 1339.68 44.4922C1341.56 44.4922 1342.85 43.5898 1342.85 42.3477C1342.85 41.2461 1342.04 40.6367 1340 40.1797L1337.8 39.6992C1334.68 39.0312 1333.15 37.4492 1333.15 34.9766C1333.15 31.8594 1335.84 29.7969 1339.62 29.7969C1343.55 29.7969 1346.03 31.8242 1346.09 34.8828H1342.77C1342.65 33.4531 1341.4 32.5859 1339.63 32.5859C1337.88 32.5859 1336.71 33.418 1336.71 34.6719C1336.71 35.7148 1337.53 36.3008 1339.48 36.7461L1341.53 37.1797C1344.91 37.9062 1346.39 39.3594 1346.39 41.9375C1346.39 45.2188 1343.73 47.293 1339.54 47.293C1335.47 47.293 1332.88 45.3594 1332.77 42.1836ZM1352.11 47H1348.57V30.0898H1352.11V47ZM1362.5 47H1358.96V33.0078H1354.08V30.0898H1367.4V33.0078H1362.5V47ZM1380.56 44.0703V47H1369.36V30.0898H1380.56V33.0078H1372.9V37.0859H1380.13V39.8047H1372.9V44.0703H1380.56ZM1391.41 30.0898V40.6719C1391.41 42.8398 1392.69 44.2578 1394.96 44.2578C1397.23 44.2578 1398.5 42.8398 1398.5 40.6719V30.0898H1402.04V41.0234C1402.04 44.75 1399.29 47.293 1394.96 47.293C1390.63 47.293 1387.88 44.75 1387.88 41.0234V30.0898H1391.41ZM1408.25 47H1404.87V30.0898H1407.82L1415.72 41.1055H1415.81V30.0898H1419.2V47H1416.27L1408.36 35.9258H1408.25V47ZM1422.02 30.0898H1428.48C1433.55 30.0898 1436.54 33.1133 1436.54 38.4805C1436.54 43.8477 1433.55 47 1428.48 47H1422.02V30.0898ZM1425.56 33.0078V44.0703H1428.06C1431.22 44.0703 1432.93 42.1484 1432.93 38.4922C1432.93 34.9531 1431.18 33.0078 1428.06 33.0078H1425.56ZM1450.03 44.0703V47H1438.83V30.0898H1450.03V33.0078H1442.37V37.0859H1449.6V39.8047H1442.37V44.0703H1450.03ZM1456.12 32.8555V38.2461H1459.17C1460.95 38.2461 1462 37.2266 1462 35.5508C1462 33.9102 1460.89 32.8555 1459.14 32.8555H1456.12ZM1456.12 40.8125V47H1452.59V30.0898H1459.51C1463.4 30.0898 1465.63 32.1406 1465.63 35.4805C1465.63 37.6484 1464.5 39.5234 1462.56 40.2852L1466.12 47H1462.11L1458.96 40.8125H1456.12ZM1480.2 47.293C1475.27 47.293 1472.19 44 1472.19 38.5391C1472.19 33.0898 1475.3 29.7969 1480.2 29.7969C1484.26 29.7969 1487.36 32.375 1487.62 36.1602H1484.18C1483.85 34.0859 1482.26 32.7266 1480.2 32.7266C1477.52 32.7266 1475.8 34.9648 1475.8 38.5273C1475.8 42.1367 1477.5 44.3633 1480.21 44.3633C1482.3 44.3633 1483.82 43.1328 1484.19 41.1289H1487.64C1487.24 44.9023 1484.34 47.293 1480.2 47.293ZM1497.46 29.7969C1502.46 29.7969 1505.61 33.1602 1505.61 38.5508C1505.61 43.9297 1502.46 47.293 1497.46 47.293C1492.44 47.293 1489.3 43.9297 1489.3 38.5508C1489.3 33.1602 1492.44 29.7969 1497.46 29.7969ZM1497.46 32.75C1494.69 32.75 1492.91 35 1492.91 38.5508C1492.91 42.0898 1494.68 44.3281 1497.46 44.3281C1500.22 44.3281 1501.99 42.0898 1501.99 38.5508C1501.99 35 1500.22 32.75 1497.46 32.75ZM1511.29 47H1507.9V30.0898H1510.85L1518.75 41.1055H1518.84V30.0898H1522.23V47H1519.3L1511.39 35.9258H1511.29V47ZM1524.42 42.1836H1527.83C1528 43.5781 1529.45 44.4922 1531.32 44.4922C1533.21 44.4922 1534.5 43.5898 1534.5 42.3477C1534.5 41.2461 1533.69 40.6367 1531.65 40.1797L1529.45 39.6992C1526.33 39.0312 1524.8 37.4492 1524.8 34.9766C1524.8 31.8594 1527.49 29.7969 1531.27 29.7969C1535.2 29.7969 1537.68 31.8242 1537.73 34.8828H1534.42C1534.3 33.4531 1533.05 32.5859 1531.28 32.5859C1529.53 32.5859 1528.36 33.418 1528.36 34.6719C1528.36 35.7148 1529.18 36.3008 1531.12 36.7461L1533.18 37.1797C1536.56 37.9062 1538.04 39.3594 1538.04 41.9375C1538.04 45.2188 1535.38 47.293 1531.18 47.293C1527.12 47.293 1524.53 45.3594 1524.42 42.1836ZM1547.8 47H1544.26V33.0078H1539.38V30.0898H1552.7V33.0078H1547.8V47ZM1558.2 32.8555V38.2461H1561.24C1563.02 38.2461 1564.07 37.2266 1564.07 35.5508C1564.07 33.9102 1562.96 32.8555 1561.21 32.8555H1558.2ZM1558.2 40.8125V47H1554.66V30.0898H1561.58C1565.47 30.0898 1567.7 32.1406 1567.7 35.4805C1567.7 37.6484 1566.57 39.5234 1564.63 40.2852L1568.19 47H1564.18L1561.03 40.8125H1558.2ZM1573.57 30.0898V40.6719C1573.57 42.8398 1574.85 44.2578 1577.12 44.2578C1579.38 44.2578 1580.66 42.8398 1580.66 40.6719V30.0898H1584.2V41.0234C1584.2 44.75 1581.45 47.293 1577.12 47.293C1572.79 47.293 1570.03 44.75 1570.03 41.0234V30.0898H1573.57ZM1594.5 47.293C1589.58 47.293 1586.5 44 1586.5 38.5391C1586.5 33.0898 1589.6 29.7969 1594.5 29.7969C1598.57 29.7969 1601.66 32.375 1601.93 36.1602H1598.48C1598.16 34.0859 1596.56 32.7266 1594.5 32.7266C1591.83 32.7266 1590.11 34.9648 1590.11 38.5273C1590.11 42.1367 1591.8 44.3633 1594.51 44.3633C1596.61 44.3633 1598.12 43.1328 1598.5 41.1289H1601.94C1601.54 44.9023 1598.65 47.293 1594.5 47.293ZM1611.18 47H1607.64V33.0078H1602.75V30.0898H1616.07V33.0078H1611.18V47ZM1621.57 47H1618.03V30.0898H1621.57V47ZM1632.01 29.7969C1637.02 29.7969 1640.17 33.1602 1640.17 38.5508C1640.17 43.9297 1637.02 47.293 1632.01 47.293C1627 47.293 1623.86 43.9297 1623.86 38.5508C1623.86 33.1602 1627 29.7969 1632.01 29.7969ZM1632.01 32.75C1629.25 32.75 1627.46 35 1627.46 38.5508C1627.46 42.0898 1629.23 44.3281 1632.01 44.3281C1634.78 44.3281 1636.55 42.0898 1636.55 38.5508C1636.55 35 1634.78 32.75 1632.01 32.75ZM1645.84 47H1642.45V30.0898H1645.41L1653.3 41.1055H1653.4V30.0898H1656.79V47H1653.86L1645.95 35.9258H1645.84V47Z" fill="black"/>
<path d="M1689.77 42.1836H1693.18C1693.35 43.5781 1694.8 44.4922 1696.68 44.4922C1698.56 44.4922 1699.85 43.5898 1699.85 42.3477C1699.85 41.2461 1699.04 40.6367 1697 40.1797L1694.8 39.6992C1691.68 39.0312 1690.15 37.4492 1690.15 34.9766C1690.15 31.8594 1692.84 29.7969 1696.62 29.7969C1700.55 29.7969 1703.03 31.8242 1703.09 34.8828H1699.77C1699.65 33.4531 1698.4 32.5859 1696.63 32.5859C1694.88 32.5859 1693.71 33.418 1693.71 34.6719C1693.71 35.7148 1694.53 36.3008 1696.48 36.7461L1698.53 37.1797C1701.91 37.9062 1703.39 39.3594 1703.39 41.9375C1703.39 45.2188 1700.73 47.293 1696.54 47.293C1692.47 47.293 1689.88 45.3594 1689.77 42.1836ZM1709.11 47H1705.57V30.0898H1709.11V47ZM1719.5 47H1715.96V33.0078H1711.08V30.0898H1724.4V33.0078H1719.5V47ZM1737.56 44.0703V47H1726.36V30.0898H1737.56V33.0078H1729.9V37.0859H1737.13V39.8047H1729.9V44.0703H1737.56ZM1748.41 30.0898V40.6719C1748.41 42.8398 1749.69 44.2578 1751.96 44.2578C1754.23 44.2578 1755.5 42.8398 1755.5 40.6719V30.0898H1759.04V41.0234C1759.04 44.75 1756.29 47.293 1751.96 47.293C1747.63 47.293 1744.88 44.75 1744.88 41.0234V30.0898H1748.41ZM1765.25 47H1761.87V30.0898H1764.82L1772.72 41.1055H1772.81V30.0898H1776.2V47H1773.27L1765.36 35.9258H1765.25V47ZM1779.02 30.0898H1785.48C1790.55 30.0898 1793.54 33.1133 1793.54 38.4805C1793.54 43.8477 1790.55 47 1785.48 47H1779.02V30.0898ZM1782.56 33.0078V44.0703H1785.06C1788.22 44.0703 1789.93 42.1484 1789.93 38.4922C1789.93 34.9531 1788.18 33.0078 1785.06 33.0078H1782.56ZM1807.03 44.0703V47H1795.83V30.0898H1807.03V33.0078H1799.37V37.0859H1806.6V39.8047H1799.37V44.0703H1807.03ZM1813.12 32.8555V38.2461H1816.17C1817.95 38.2461 1819 37.2266 1819 35.5508C1819 33.9102 1817.89 32.8555 1816.14 32.8555H1813.12ZM1813.12 40.8125V47H1809.59V30.0898H1816.51C1820.4 30.0898 1822.63 32.1406 1822.63 35.4805C1822.63 37.6484 1821.5 39.5234 1819.56 40.2852L1823.12 47H1819.11L1815.96 40.8125H1813.12ZM1837.2 47.293C1832.27 47.293 1829.19 44 1829.19 38.5391C1829.19 33.0898 1832.3 29.7969 1837.2 29.7969C1841.26 29.7969 1844.36 32.375 1844.62 36.1602H1841.18C1840.85 34.0859 1839.26 32.7266 1837.2 32.7266C1834.52 32.7266 1832.8 34.9648 1832.8 38.5273C1832.8 42.1367 1834.5 44.3633 1837.21 44.3633C1839.3 44.3633 1840.82 43.1328 1841.19 41.1289H1844.64C1844.24 44.9023 1841.34 47.293 1837.2 47.293ZM1854.46 29.7969C1859.46 29.7969 1862.61 33.1602 1862.61 38.5508C1862.61 43.9297 1859.46 47.293 1854.46 47.293C1849.44 47.293 1846.3 43.9297 1846.3 38.5508C1846.3 33.1602 1849.44 29.7969 1854.46 29.7969ZM1854.46 32.75C1851.69 32.75 1849.91 35 1849.91 38.5508C1849.91 42.0898 1851.68 44.3281 1854.46 44.3281C1857.22 44.3281 1858.99 42.0898 1858.99 38.5508C1858.99 35 1857.22 32.75 1854.46 32.75ZM1868.29 47H1864.9V30.0898H1867.85L1875.75 41.1055H1875.84V30.0898H1879.23V47H1876.3L1868.39 35.9258H1868.29V47ZM1881.42 42.1836H1884.83C1885 43.5781 1886.45 44.4922 1888.32 44.4922C1890.21 44.4922 1891.5 43.5898 1891.5 42.3477C1891.5 41.2461 1890.69 40.6367 1888.65 40.1797L1886.45 39.6992C1883.33 39.0312 1881.8 37.4492 1881.8 34.9766C1881.8 31.8594 1884.49 29.7969 1888.27 29.7969C1892.2 29.7969 1894.68 31.8242 1894.73 34.8828H1891.42C1891.3 33.4531 1890.05 32.5859 1888.28 32.5859C1886.53 32.5859 1885.36 33.418 1885.36 34.6719C1885.36 35.7148 1886.18 36.3008 1888.12 36.7461L1890.18 37.1797C1893.56 37.9062 1895.04 39.3594 1895.04 41.9375C1895.04 45.2188 1892.38 47.293 1888.18 47.293C1884.12 47.293 1881.53 45.3594 1881.42 42.1836ZM1904.8 47H1901.26V33.0078H1896.38V30.0898H1909.7V33.0078H1904.8V47ZM1915.2 32.8555V38.2461H1918.24C1920.02 38.2461 1921.07 37.2266 1921.07 35.5508C1921.07 33.9102 1919.96 32.8555 1918.21 32.8555H1915.2ZM1915.2 40.8125V47H1911.66V30.0898H1918.58C1922.47 30.0898 1924.7 32.1406 1924.7 35.4805C1924.7 37.6484 1923.57 39.5234 1921.63 40.2852L1925.19 47H1921.18L1918.03 40.8125H1915.2ZM1930.57 30.0898V40.6719C1930.57 42.8398 1931.85 44.2578 1934.12 44.2578C1936.38 44.2578 1937.66 42.8398 1937.66 40.6719V30.0898H1941.2V41.0234C1941.2 44.75 1938.45 47.293 1934.12 47.293C1929.79 47.293 1927.03 44.75 1927.03 41.0234V30.0898H1930.57ZM1951.5 47.293C1946.58 47.293 1943.5 44 1943.5 38.5391C1943.5 33.0898 1946.6 29.7969 1951.5 29.7969C1955.57 29.7969 1958.66 32.375 1958.93 36.1602H1955.48C1955.16 34.0859 1953.56 32.7266 1951.5 32.7266C1948.83 32.7266 1947.11 34.9648 1947.11 38.5273C1947.11 42.1367 1948.8 44.3633 1951.51 44.3633C1953.61 44.3633 1955.12 43.1328 1955.5 41.1289H1958.94C1958.54 44.9023 1955.65 47.293 1951.5 47.293ZM1968.18 47H1964.64V33.0078H1959.75V30.0898H1973.07V33.0078H1968.18V47ZM1978.57 47H1975.03V30.0898H1978.57V47ZM1989.01 29.7969C1994.02 29.7969 1997.17 33.1602 1997.17 38.5508C1997.17 43.9297 1994.02 47.293 1989.01 47.293C1984 47.293 1980.86 43.9297 1980.86 38.5508C1980.86 33.1602 1984 29.7969 1989.01 29.7969ZM1989.01 32.75C1986.25 32.75 1984.46 35 1984.46 38.5508C1984.46 42.0898 1986.23 44.3281 1989.01 44.3281C1991.78 44.3281 1993.55 42.0898 1993.55 38.5508C1993.55 35 1991.78 32.75 1989.01 32.75ZM2002.84 47H1999.45V30.0898H2002.41L2010.3 41.1055H2010.4V30.0898H2013.79V47H2010.86L2002.95 35.9258H2002.84V47Z" fill="black"/>
</g>
<defs>
<clipPath id="clip0_11_155">
<rect width="1920" height="60" fill="white"/>
</clipPath>
</defs>
</svg>
