<svg width="29" height="21" viewBox="0 0 29 21" fill="none" xmlns="http://www.w3.org/2000/svg">
<g clip-path="url(#clip0_49_67)">
<path d="M2.4081 21H6.86324V10.185L0.5 5.41626V19.0925C0.5 20.1513 1.35777 21 2.4081 21Z" fill="#4285F4"/>
<path d="M22.1367 21H26.5919C27.6509 21 28.5 20.1425 28.5 19.0925V5.41626L22.1367 10.185V21Z" fill="#34A853"/>
<path d="M22.1367 1.91627V10.185L28.4999 5.41627V2.87002C28.4999 0.507519 25.8041 -0.839981 23.9135 0.577519L22.1279 1.91627H22.1367Z" fill="#FBBC04"/>
<path fill-rule="evenodd" clip-rule="evenodd" d="M6.86328 10.185V1.91626L14.5044 7.63876L22.1456 1.91626V10.185L14.5044 15.9075L6.86328 10.185Z" fill="#EA4335"/>
<path d="M0.5 2.86984V5.41609L6.86324 10.1848V1.91609L5.07768 0.577336C3.19584 -0.840164 0.5 0.507336 0.5 2.86984Z" fill="#C5221F"/>
</g>
<defs>
<clipPath id="clip0_49_67">
<rect width="28" height="21" fill="white" transform="translate(0.5)"/>
</clipPath>
</defs>
</svg>
