<svg width="25" height="24" viewBox="0 0 25 24" fill="none" xmlns="http://www.w3.org/2000/svg">
<g clip-path="url(#clip0_10_43)">
<path d="M0.5 24C0.972187 22.2816 1.43041 20.612 1.88901 18.9429C1.98375 18.5979 2.17285 18.2446 2.14529 17.9093C2.11774 17.5774 1.8724 17.2632 1.72067 16.9419C-0.812385 11.5871 1.06051 5.10554 6.06546 1.91043C8.44338 0.392361 11.0425 -0.218022 13.8469 0.0687531C18.9134 0.586677 23.1502 4.38729 24.2275 9.36055C25.5335 15.3911 22.0341 21.416 16.1139 23.2565C12.9992 24.2247 9.96752 23.9301 7.04758 22.4759C6.92151 22.4131 6.74034 22.3906 6.60484 22.4252C4.66098 22.9213 2.7209 23.4306 0.779311 23.9365C0.700802 23.9567 0.621161 23.9725 0.5 24ZM3.36671 21.1845C4.56511 20.8714 5.71406 20.576 6.85924 20.2678C7.054 20.2155 7.20234 20.2415 7.37407 20.3441C9.58554 21.6644 11.9684 22.0993 14.4939 21.5994C19.8472 20.5395 23.3171 15.3824 22.3089 10.0311C21.3076 4.71541 16.0705 1.16474 10.7224 2.1754C4.03555 3.43901 0.550955 10.8643 3.91401 16.7505C4.2624 17.3602 4.33336 17.8608 4.11632 18.5031C3.82418 19.3668 3.62036 20.2599 3.36671 21.1845Z" fill="white"/>
<path d="M3.36671 21.1845C3.62036 20.2599 3.82418 19.3669 4.11632 18.5032C4.33373 17.8608 4.26239 17.3602 3.91401 16.7506C0.550953 10.8644 4.03555 3.43904 10.7217 2.17543C16.0697 1.16476 21.3068 4.71543 22.3082 10.0311C23.3163 15.3829 19.8468 20.5395 14.4931 21.5994C11.968 22.0993 9.58478 21.6645 7.37332 20.3441C7.20158 20.2415 7.05324 20.2152 6.85848 20.2678C5.7133 20.576 4.56435 20.8714 3.36596 21.1845H3.36671ZM8.68759 6.42029C8.22295 6.36392 7.84248 6.4451 7.52392 6.76645C6.55426 7.74479 6.27608 8.90129 6.61729 10.2145C6.87395 11.2034 7.4473 12.0257 8.05461 12.8252C9.5527 14.7973 11.3471 16.3834 13.7477 17.1978C14.5792 17.4801 15.4016 17.7019 16.2977 17.5786C17.4715 17.417 18.4231 16.5262 18.5903 15.3704C18.6764 14.7747 18.6356 14.6973 18.1 14.4357C18.04 14.4064 17.9796 14.3774 17.9192 14.3493C17.2624 14.0392 16.6098 13.7197 15.9463 13.4235C15.6092 13.2732 15.473 13.3326 15.2556 13.6077C14.9661 13.9742 14.6664 14.3331 14.3738 14.6973C14.2104 14.901 14.0175 14.945 13.7733 14.848C11.9903 14.1403 10.6243 12.9541 9.65084 11.3109C9.52741 11.1023 9.54289 10.9301 9.69575 10.7415C9.94789 10.4306 10.1815 10.1055 10.4231 9.78604C10.5786 9.58008 10.588 9.36922 10.4846 9.12981C10.1872 8.44237 9.89127 7.75306 9.62064 7.05511C9.44362 6.59845 9.19563 6.29513 8.68759 6.42067V6.42029Z" fill="#00AB41"/>
<path d="M8.68759 6.4203C9.19601 6.29476 9.44361 6.59845 9.62064 7.05474C9.89127 7.75307 10.1872 8.442 10.4846 9.12944C10.588 9.36885 10.579 9.57971 10.4231 9.78567C10.1819 10.1051 9.94789 10.4303 9.69575 10.7411C9.54251 10.9298 9.52741 11.1019 9.65083 11.3105C10.6243 12.9537 11.9903 14.1399 13.7733 14.8476C14.0175 14.9446 14.2104 14.9006 14.3738 14.6969C14.6664 14.3327 14.9661 13.9738 15.2556 13.6073C15.473 13.3322 15.6092 13.2728 15.9463 13.4232C16.6095 13.7193 17.2621 14.0388 17.9192 14.3489C17.9796 14.3775 18.04 14.406 18.1 14.4353C18.6356 14.6969 18.6764 14.7747 18.5903 15.3701C18.4231 16.5258 17.4715 17.4166 16.2977 17.5782C15.4016 17.7015 14.5795 17.4797 13.7476 17.1975C11.3471 16.383 9.5527 14.7969 8.05461 12.8248C7.44729 12.0254 6.87395 11.203 6.61729 10.2141C6.27608 8.90092 6.55425 7.74442 7.52392 6.76608C7.84248 6.44473 8.22257 6.36355 8.68759 6.41992V6.4203Z" fill="white"/>
</g>
<defs>
<clipPath id="clip0_10_43">
<rect width="24" height="24" fill="white" transform="translate(0.5)"/>
</clipPath>
</defs>
</svg>
